<svg xmlns="http://www.w3.org/2000/svg" xmlns:xlink="http://www.w3.org/1999/xlink" width="1934.002" height="147.162" viewBox="0 0 1934.002 147.162">
  <defs>
    <linearGradient id="linear-gradient" x1="0.567" y1="0.649" x2="0.829" y2="0.563" gradientUnits="objectBoundingBox">
      <stop offset="0" stop-color="#928e67"/>
      <stop offset="1" stop-color="#5b5600"/>
    </linearGradient>
  </defs>
  <g id="hero_image-2" data-name="hero image-2" transform="translate(0.001 -546.766)">
    <path id="Subtraction_3" data-name="Subtraction 3" d="M7062-502.838H5128V-520c.278.038,30.106,4.06,84.278,8.046,31.747,2.336,65.479,4.2,100.259,5.531,43.449,1.669,88.7,2.515,134.482,2.515,131.1,0,266.729-6.832,403.116-20.307,39.811-3.933,80.224-8.5,120.116-13.562,42.1-5.347,84.724-11.4,126.695-17.984,44.144-6.927,88.79-14.639,132.7-22.92,45.956-8.667,92.425-18.211,138.117-28.366,14.53-3.23,29.576-6.074,44.718-8.454,14.674-2.307,29.851-4.245,45.109-5.758,28.985-2.874,59.4-4.332,90.412-4.332,31.734,0,64.87,1.526,98.488,4.537,30.557,2.736,62.213,6.761,94.09,11.961a1556.28,1556.28,0,0,1,164.212,36.3c21.742,6.026,43.524,12.549,64.741,19.386,17.023,5.485,33.7,11.175,49.578,16.911,26.473,9.564,42.227,16.216,42.884,16.495l.008,0v17.164ZM5408.145-521.1l-.685-.042h0l0,0h.01v0l.549.032.068,0,.067,0Zm-1-.061c-1.786-.11-3.6-.225-5.4-.343,1.777.114,3.6.229,5.4.341Zm-5.609-.356-.251-.016-.455-.03.455.028v0l.251.014h0Zm-.711-.047-1.654-.11q.827.052,1.654.108Zm1555.356-46.74c-1.181-.464-2.374-.931-3.546-1.388-1.823-.711-3.664-1.425-5.472-2.121,1.8.691,3.641,1.405,5.473,2.12v0c1.177.457,2.37.924,3.547,1.386Z" transform="translate(-5128.001 1196.766)" fill="#fff"/>
    <path id="Subtraction_1" data-name="Subtraction 1" d="M5447.02,42.855c-45.77,0-91.017-.846-134.483-2.514-34.781-1.335-68.513-3.2-100.259-5.532C5158.207,30.83,5128.3,26.8,5128,26.762v-51.05c12.869,4.41,26.363,8.606,40.109,12.471s28.121,7.5,42.731,10.815c29.233,6.628,60.635,12.231,93.333,16.653,32.722,4.425,67.658,7.79,103.835,10,36.208,2.215,74.681,3.337,114.351,3.336,28.975,0,59.28-.6,90.074-1.782,30.824-1.183,63.012-2.983,95.669-5.348,32.68-2.367,66.75-5.368,101.264-8.919,34.543-3.554,70.5-7.759,106.857-12.5C5952.61-4.3,5990.444-9.71,6028.673-15.64c38.264-5.936,77.978-12.555,118.041-19.674,40.115-7.128,81.71-14.958,123.631-23.272,41.966-8.323,85.442-17.365,129.219-26.876,13.268-2.947,26.845-5.563,40.353-7.775s27.309-4.08,41.034-5.554,27.756-2.6,41.707-3.333,28.207-1.111,42.378-1.111c19,0,38.475.672,57.877,2S6662.192-97.9,6682-95.249s40.094,6.008,60.3,9.982,40.9,8.675,61.513,13.975,41.716,11.345,62.725,17.968,42.526,14.013,63.94,21.961,43.338,16.682,65.153,25.955S7039.775,13.939,7062,24.54v2.222c-.138-.058-15.826-6.719-42.891-16.5-15.908-5.748-32.588-11.438-49.578-16.911-21.232-6.841-43.014-13.363-64.742-19.385a1555.805,1555.805,0,0,0-164.214-36.3c-31.871-5.2-63.527-9.225-94.089-11.961-33.622-3.01-66.758-4.537-98.488-4.537-31,0-61.421,1.458-90.412,4.332-15.256,1.513-30.433,3.45-45.108,5.757-15.148,2.381-30.193,5.225-44.719,8.454-45.636,10.145-92.106,19.689-138.118,28.367-43.9,8.28-88.549,15.992-132.7,22.919-41.971,6.586-84.6,12.637-126.694,17.984-39.859,5.063-80.272,9.626-120.116,13.562C5713.748,36.023,5578.12,42.855,5447.02,42.855Z" transform="translate(-5128 650)" fill="url(#linear-gradient)"/>
  </g>
</svg>
