<svg xmlns="http://www.w3.org/2000/svg" width="29" height="29" viewBox="0 0 29 29"><g><g><path fill="#0a4e68" d="M22.167 21.166l-1.162 1.162c-.207.207-.815.337-.834.337a13.712 13.712 0 0 1-9.814-4.012 13.727 13.727 0 0 1-4.013-9.847c0-.002.133-.592.34-.797l1.162-1.162c.425-.427 1.241-.62 1.813-.429l.245.082c.57.19 1.169.821 1.326 1.402l.585 2.145c.157.583-.055 1.412-.48 1.837l-.776.776a8.239 8.239 0 0 0 5.793 5.795l.776-.776c.427-.427 1.256-.64 1.837-.482l2.144.586c.581.16 1.212.755 1.403 1.325l.082.248c.19.57-.002 1.387-.427 1.81zM14.5 0C22.508 0 29 6.492 29 14.5S22.508 29 14.5 29 0 22.508 0 14.5 6.492 0 14.5 0zm0 1.813C7.505 1.813 1.812 7.505 1.812 14.5c0 6.995 5.693 12.688 12.688 12.688 6.995 0 12.688-5.693 12.688-12.688 0-6.995-5.693-12.688-12.688-12.688z"/></g></g></svg>