<svg id="Group_5" data-name="Group 5" xmlns="http://www.w3.org/2000/svg" width="67" height="67" viewBox="0 0 67 67">
  <path id="Fill_1" data-name="Fill 1" d="M12.46,67v0l.163-16.5H0V0H67V50.493H31.76L12.461,67Zm1.9-18.236-.143,14.468L31.131,48.764H65.284V1.728H1.716V48.764Z"/>
  <path id="_" data-name="???" d="M4.089-4.858a5.269,5.269,0,0,1-.2-.824,6.046,6.046,0,0,1-.085-1.007A3.134,3.134,0,0,1,4.12-8.1,5.833,5.833,0,0,1,4.9-9.277a11.746,11.746,0,0,1,1.013-1.056q.549-.507,1.013-1.025A5.854,5.854,0,0,0,7.7-12.445,2.559,2.559,0,0,0,8.008-13.7a2.29,2.29,0,0,0-.226-1.038,2.19,2.19,0,0,0-.616-.757,2.7,2.7,0,0,0-.9-.458A3.79,3.79,0,0,0,5.176-16.1,4.735,4.735,0,0,0,1.6-14.478v-2.148A7.184,7.184,0,0,1,5.469-17.8a6.074,6.074,0,0,1,1.746.244,4.3,4.3,0,0,1,1.434.726,3.419,3.419,0,0,1,.97,1.2,3.747,3.747,0,0,1,.354,1.672,3.9,3.9,0,0,1-.317,1.611,5.816,5.816,0,0,1-.8,1.3,10.31,10.31,0,0,1-1.044,1.1q-.562.513-1.044,1.019a5.6,5.6,0,0,0-.8,1.056,2.373,2.373,0,0,0-.317,1.208,3.615,3.615,0,0,0,.134,1.019,7.28,7.28,0,0,0,.269.775ZM5.188.22a1.349,1.349,0,0,1-.952-.391,1.276,1.276,0,0,1-.4-.952,1.251,1.251,0,0,1,.4-.952,1.3,1.3,0,0,1,.952-.4,1.3,1.3,0,0,1,.952.4,1.251,1.251,0,0,1,.4.952,1.276,1.276,0,0,1-.4.952A1.349,1.349,0,0,1,5.188.22ZM15.3-4.858a5.269,5.269,0,0,1-.2-.824,6.046,6.046,0,0,1-.085-1.007,3.134,3.134,0,0,1,.311-1.41A5.833,5.833,0,0,1,16.1-9.277a11.746,11.746,0,0,1,1.013-1.056q.549-.507,1.013-1.025a5.854,5.854,0,0,0,.775-1.086,2.559,2.559,0,0,0,.311-1.251,2.29,2.29,0,0,0-.226-1.038,2.19,2.19,0,0,0-.616-.757,2.7,2.7,0,0,0-.9-.458,3.79,3.79,0,0,0-1.086-.153,4.735,4.735,0,0,0-3.577,1.624v-2.148a7.184,7.184,0,0,1,3.87-1.172,6.074,6.074,0,0,1,1.746.244,4.3,4.3,0,0,1,1.434.726,3.419,3.419,0,0,1,.97,1.2,3.747,3.747,0,0,1,.354,1.672,3.9,3.9,0,0,1-.317,1.611,5.816,5.816,0,0,1-.8,1.3,10.31,10.31,0,0,1-1.044,1.1q-.562.513-1.044,1.019a5.6,5.6,0,0,0-.8,1.056,2.373,2.373,0,0,0-.317,1.208,3.615,3.615,0,0,0,.134,1.019,7.28,7.28,0,0,0,.269.775ZM16.394.22a1.349,1.349,0,0,1-.952-.391,1.276,1.276,0,0,1-.4-.952,1.251,1.251,0,0,1,.4-.952,1.3,1.3,0,0,1,.952-.4,1.3,1.3,0,0,1,.952.4,1.251,1.251,0,0,1,.4.952,1.276,1.276,0,0,1-.4.952A1.349,1.349,0,0,1,16.394.22ZM26.5-4.858a5.269,5.269,0,0,1-.2-.824,6.046,6.046,0,0,1-.085-1.007,3.134,3.134,0,0,1,.311-1.41,5.833,5.833,0,0,1,.775-1.178,11.746,11.746,0,0,1,1.013-1.056q.549-.507,1.013-1.025a5.854,5.854,0,0,0,.775-1.086A2.559,2.559,0,0,0,30.42-13.7a2.29,2.29,0,0,0-.226-1.038,2.19,2.19,0,0,0-.616-.757,2.7,2.7,0,0,0-.9-.458,3.79,3.79,0,0,0-1.086-.153,4.735,4.735,0,0,0-3.577,1.624v-2.148a7.184,7.184,0,0,1,3.87-1.172,6.074,6.074,0,0,1,1.746.244,4.3,4.3,0,0,1,1.434.726,3.419,3.419,0,0,1,.97,1.2,3.747,3.747,0,0,1,.354,1.672,3.9,3.9,0,0,1-.317,1.611,5.816,5.816,0,0,1-.8,1.3,10.31,10.31,0,0,1-1.044,1.1q-.562.513-1.044,1.019a5.6,5.6,0,0,0-.8,1.056,2.373,2.373,0,0,0-.317,1.208A3.615,3.615,0,0,0,28.2-5.634a7.28,7.28,0,0,0,.269.775ZM27.6.22a1.349,1.349,0,0,1-.952-.391,1.276,1.276,0,0,1-.4-.952,1.251,1.251,0,0,1,.4-.952,1.3,1.3,0,0,1,.952-.4,1.3,1.3,0,0,1,.952.4,1.251,1.251,0,0,1,.4.952,1.276,1.276,0,0,1-.4.952A1.349,1.349,0,0,1,27.6.22Z" transform="translate(16 37)"/>
</svg>
