<svg xmlns="http://www.w3.org/2000/svg" width="28" height="28" viewBox="0 0 28 28"><defs><clipPath id="zljya"><path d="M0 .01h27.991v27.962H0z"/></clipPath></defs><g><g clip-path="url(#clip-9FFB6EA1-E293-4B8A-B599-0996FE7C20CD)"><g><g/><g clip-path="url(#zljya)"><path fill="#fff" d="M13.995 27.972C6.265 27.972 0 21.713 0 13.99 0 6.267 6.265.01 13.995.01c7.732 0 13.996 6.258 13.996 13.98 0 7.712-6.252 13.982-13.996 13.982m0-26.727c-7.035 0-12.76 5.72-12.76 12.75 0 7.032 5.725 12.752 12.76 12.752 7.036 0 12.76-5.72 12.76-12.751S21.031 1.245 13.995 1.245"/></g></g><g><path fill="#fff" d="M9 6.116c0-.103.073-.146.163-.094l12.77 7.384c.09.052.09.136 0 .188l-12.77 7.384c-.09.052-.163.01-.163-.094z"/></g></g></g></svg>