<svg xmlns="http://www.w3.org/2000/svg" xmlns:xlink="http://www.w3.org/1999/xlink" width="315.901" height="69.867" viewBox="0 0 315.901 69.867">
  <defs>
    <clipPath id="clip-path">
      <path id="Clip_6" data-name="Clip 6" d="M0,0H315.9V68.779H0Z" transform="translate(0.038 0.133)" fill="none"/>
    </clipPath>
  </defs>
  <g id="logo" transform="translate(-0.038 -0.133)">
    <path id="Fill_1" data-name="Fill 1" d="M26.22,24.883c0,1.734.262,2.774,1.045,3.078a.356.356,0,0,1-.042.52,9.82,9.82,0,0,0-2.134.39A34.276,34.276,0,0,1,17.29,30C12.108,30,7.358,28.567,4,25.187a13.625,13.625,0,0,1-4-9.842A14.842,14.842,0,0,1,3.919,5.072C6.838,2.039,11.149,0,17.727,0A26.436,26.436,0,0,1,23.26.648a11.323,11.323,0,0,0,2.7.392,48.189,48.189,0,0,0,.654,6.285c-.132.347-.917.392-1.178.131C24.218,2.775,20.952,1.3,16.508,1.3,8.055,1.3,4.353,7.283,4.353,13.785c0,8.324,4.314,14.871,13.069,14.871,2.7,0,4.311-.563,4.794-1.3a4.836,4.836,0,0,0,.434-2.473V23.149c0-3.642-.131-3.9-2.831-4.2L17.9,18.728a.719.719,0,0,1,0-1.083c1.262.085,3.656.128,6.23.128,1.7,0,3.177-.043,4.616-.128a.751.751,0,0,1,.043,1.083l-.7.085c-1.828.219-1.874,1.43-1.874,3.641v2.428" transform="translate(210 40)" fill="#fff"/>
    <path id="Fill_2" data-name="Fill 2" d="M18.525,21a6.336,6.336,0,0,1-3.395-.783,10.325,10.325,0,0,1-3.065-3.142c-.4-.576-.92-1.391-1.467-2.254S9.49,13.071,9,12.368a2.225,2.225,0,0,0-2.211-1c-1.4,0-1.469.032-1.469.685v3.925c0,3.278.061,3.647,1.871,3.9l.655.092a.5.5,0,0,1,.109.424.458.458,0,0,1-.171.355c-1.341-.059-2.429-.1-3.712-.1-1.358,0-2.5.037-3.9.1a.387.387,0,0,1-.162-.276.618.618,0,0,1,.1-.5l.782-.092c1.8-.221,1.871-.645,1.871-3.9V4.8c0-2.95-.1-3.487-1.373-3.644l-1-.124A.5.5,0,0,1,.236.591.4.4,0,0,1,.425.25C2.319.079,4.531,0,7.384,0A11.166,11.166,0,0,1,12.6.936,4.631,4.631,0,0,1,15.185,5.3c0,3.382-2.986,4.837-3.9,5.2-.157.186,0,.5.155.749,2.381,3.826,4.1,6.47,6.272,8.288a3.74,3.74,0,0,0,2.156.871.219.219,0,0,1,.129.178.277.277,0,0,1-.1.257A4.829,4.829,0,0,1,18.525,21ZM7.353.964c-1.916,0-2.029.113-2.029,1V9.252a2.484,2.484,0,0,0,.092,1.029c.079.076.4.155,2.155.155a5.306,5.306,0,0,0,3.215-.809,4.548,4.548,0,0,0,1.559-3.864A4.592,4.592,0,0,0,7.353.964Z" transform="translate(239 48)" fill="#fff"/>
    <path id="Fill_3" data-name="Fill 3" d="M11.141,22a11.061,11.061,0,0,1-8.175-3.243A10.741,10.741,0,0,1,0,11.22,11.277,11.277,0,0,1,3.153,3.227,11.078,11.078,0,0,1,11.141,0a10.545,10.545,0,0,1,8.14,3.354A11.262,11.262,0,0,1,22,10.905a11.163,11.163,0,0,1-3.165,7.954A10.748,10.748,0,0,1,11.141,22ZM10.61.986c-3.451,0-7.481,2.415-7.481,9.22,0,5.2,2.634,10.8,8.419,10.8,3.378,0,7.322-2.389,7.322-9.121C18.87,6.859,16.707.986,10.61.986Z" transform="translate(257 48)" fill="#fff"/>
    <path id="Fill_4" data-name="Fill 4" d="M17.862,7.856c0-1.916-.062-5.474-.593-6.4A1.925,1.925,0,0,0,15.714.806L14.936.744A.562.562,0,0,1,14.995,0c1.185.064,2.336.094,3.553.094C19.856.094,20.7.064,21.816,0a.535.535,0,0,1,.064.744l-.75.061a1.827,1.827,0,0,0-1.556.742c-.438,1.02-.438,4.577-.438,6.308V11.35c0,2.689-.432,5.536-2.176,7.391A8.231,8.231,0,0,1,11.01,21a8.883,8.883,0,0,1-5.821-1.7c-1.651-1.361-2.429-3.62-2.429-7.3V4.7C2.761,1.486,2.7.959.89.806L.113.744C-.073.619-.014.094.177,0,1.733.064,2.792.094,4.035.094,5.313.094,6.341.064,7.868,0c.185.094.247.619.062.744L7.18.806c-1.8.153-1.867.68-1.867,3.9v6.679c0,4.978,1.559,8.258,6.324,8.258,4.513,0,6.225-3.525,6.225-8.227V7.856" transform="translate(277 48)" fill="#fff"/>
    <g id="Group_8" data-name="Group 8">
      <path id="Clip_6-2" data-name="Clip 6" d="M0,0H315.9V68.779H0Z" transform="translate(0.038 0.133)" fill="none"/>
      <g id="Group_8-2" data-name="Group 8" clip-path="url(#clip-path)">
        <path id="Fill_5" data-name="Fill 5" d="M5.391,16.231c0,3.321.066,3.732,2.1,3.954l.856.1a.615.615,0,0,1-.06.79c-1.811-.063-2.859-.1-4.135-.1-1.333,0-2.476.034-3.875.1a.616.616,0,0,1-.065-.79l.667-.1c1.846-.254,1.909-.633,1.909-3.954V4.556c0-2.687-.062-3.227-1.492-3.384L.15,1.047A.529.529,0,0,1,.21.254,50.7,50.7,0,0,1,6.506,0a11.534,11.534,0,0,1,6.1,1.267,5.461,5.461,0,0,1,2.542,4.745,5.365,5.365,0,0,1-3.178,5.033,10.81,10.81,0,0,1-4.385.95c-.223-.1-.223-.574-.031-.636,3.433-.63,4.668-2.562,4.668-5.312,0-3.07-1.811-5.064-5.115-5.064-1.682,0-1.717.126-1.717,1.141V16.231" transform="translate(300.79 47.84)" fill="#fff"/>
        <path id="Fill_7" data-name="Fill 7" d="M23.111,34.6c0,6.694.127,7.649,3.84,7.972L29,42.764c.384.256.261,1.4-.126,1.595-3.645-.129-5.826-.2-8.382-.2s-4.805.068-8.9.2a1.113,1.113,0,0,1,0-1.595l2.306-.189c3.651-.323,3.972-1.278,3.972-7.972V6.111c0-1.974,0-2.037-1.926-2.037H12.419c-2.751,0-6.273.129-7.875,1.592a11.587,11.587,0,0,0-2.883,4.4A1.242,1.242,0,0,1,0,9.62,66.726,66.726,0,0,0,2.43.122a1.591,1.591,0,0,1,1.218,0C4.035,2.159,6.146,2.1,9.086,2.1H35.018c3.458,0,4.034-.125,4.992-1.783C40.333.185,41.037.251,41.161.5a38.586,38.586,0,0,0-.957,9.689,1.2,1.2,0,0,1-1.665.125c-.189-1.589-.64-3.949-1.6-4.65-1.478-1.081-3.906-1.592-7.43-1.592H24.965c-1.92,0-1.854.063-1.854,2.166V34.6" transform="translate(0 0.133)" fill="#fff"/>
      </g>
    </g>
    <path id="Fill_9" data-name="Fill 9" d="M10.329,15.823c-2.245,0-2.343.094-2.343,1.49v6.571c0,4.882.237,5.539,2.855,5.813l1.361.143c.279.181.187,1.017-.1,1.161-2.527-.095-4.121-.144-5.944-.144-2.018,0-3.6.095-5.429.144a.893.893,0,0,1-.092-1.161l.793-.143c2.622-.47,2.711-.931,2.711-5.813V7.118c0-4.883-.322-5.679-2.754-5.86l-1.222-.1C-.113.977-.015.132.265,0c2.3.049,3.881.132,5.9.132C7.987.132,9.581.086,11.591,0c.286.132.378.977.1,1.161l-.887.1c-2.715.278-2.813.977-2.813,5.86V12.47c0,1.444.1,1.493,2.343,1.493H23.72c2.242,0,2.34-.049,2.34-1.493V7.118c0-4.883-.1-5.582-2.853-5.86l-.9-.1c-.279-.184-.184-1.029.1-1.161,2.15.086,3.743.132,5.662.132C29.9.132,31.491.086,33.595,0c.285.132.371.977.1,1.161l-.988.1c-2.708.278-2.8.977-2.8,5.86V23.883c0,4.882.1,5.487,2.8,5.813l1.127.143c.285.181.187,1.017-.089,1.161-2.248-.095-3.841-.144-5.669-.144-1.919,0-3.6.049-5.662.144a.9.9,0,0,1-.1-1.161l.9-.143c2.853-.47,2.853-.931,2.853-5.813V17.312c0-1.4-.1-1.49-2.34-1.49H10.329" transform="translate(34 14)" fill="#fff"/>
    <path id="Fill_10" data-name="Fill 10" d="M4.526,7.12c0-4.845-.09-5.536-2.8-5.86l-.735-.1C.717.978.813.135,1.081,0,3.057.089,4.616.135,6.5.135H15.13c2.937,0,5.649,0,6.2-.135a52.293,52.293,0,0,1,.738,6.189.9.9,0,0,1-1.147.095c-.69-2.183-1.1-3.814-3.487-4.421a21.369,21.369,0,0,0-4.458-.278h-3.3c-1.379,0-1.379.086-1.379,1.862v9.3c0,1.306.139,1.306,1.518,1.306h2.667a16.837,16.837,0,0,0,3.9-.278c.549-.189.876-.467,1.1-1.63l.371-1.909a.9.9,0,0,1,1.195.046c0,1.115-.189,2.934-.189,4.7,0,1.676.189,3.445.189,4.47a.891.891,0,0,1-1.195.04l-.41-1.811A1.99,1.99,0,0,0,16,15.92a14.978,14.978,0,0,0-3.53-.232H9.807c-1.379,0-1.518.043-1.518,1.255V23.51c0,2.464.139,4.048.873,4.836.551.556,1.517,1.074,5.555,1.074,3.535,0,4.868-.192,5.874-.7.828-.458,2.069-2.089,3.264-4.516A.841.841,0,0,1,25,24.527,40.745,40.745,0,0,1,22.937,31c-4.137-.092-8.219-.141-12.3-.141H6.5c-1.972,0-3.532.049-6.236.141a.9.9,0,0,1-.093-1.158L1.681,29.7c2.616-.229,2.845-.928,2.845-5.811V7.12" transform="translate(68 14)" fill="#fff"/>
    <path id="Fill_11" data-name="Fill 11" d="M37.347,16.46c0-4.019-.13-11.471-1.235-13.415-.457-.778-1.629-1.232-3.257-1.361l-1.629-.129A1.167,1.167,0,0,1,31.359,0c2.473.129,4.882.195,7.421.195,2.735,0,4.492-.066,6.836-.195a1.115,1.115,0,0,1,.132,1.555l-1.565.129c-1.626.129-2.864.714-3.254,1.555-.911,2.138-.911,9.59-.911,13.221v7.321c0,5.64-.913,11.6-4.558,15.488C32.659,42.316,27.843,44,23.023,44c-4.492,0-8.984-.844-12.175-3.565C7.4,37.585,5.77,32.854,5.77,25.144V9.851c0-6.74-.132-7.841-3.906-8.167L.236,1.555C-.156,1.3-.023.195.364,0,3.619.129,5.833.195,8.438.195,11.11.195,13.255.129,16.449,0c.387.195.52,1.3.129,1.555l-1.563.129C11.238,2.01,11.11,3.11,11.11,9.851v14c0,10.434,3.254,17.3,13.215,17.3,9.444,0,13.023-7.387,13.023-17.238V16.46" transform="translate(90 1)" fill="#fff"/>
    <path id="Fill_12" data-name="Fill 12" d="M27.787,32A9.38,9.38,0,0,1,22.7,30.808a15.625,15.625,0,0,1-4.6-4.789c-.613-.884-1.394-2.139-2.222-3.467-.81-1.3-1.646-2.643-2.367-3.7-.662-.984-1.387-1.517-3.322-1.517-2.1,0-2.2.049-2.2,1.045v5.982c0,4.991.091,5.552,2.809,5.933l.985.144a.782.782,0,0,1,.157.661.689.689,0,0,1-.254.526c-2.242-.1-3.8-.141-5.568-.141-1.865,0-3.506.04-5.853.141a.564.564,0,0,1-.239-.4.975.975,0,0,1,.146-.782l1.17-.144c1.319-.161,2.056-.394,2.422-1.221s.387-2.259.387-4.712V7.313c0-4.5-.152-5.319-2.059-5.556l-1.5-.19A.759.759,0,0,1,.354.9.615.615,0,0,1,.641.38C3.518.121,6.834,0,11.075,0c2.587,0,5.538.169,7.817,1.426a7.062,7.062,0,0,1,3.885,6.647,7.7,7.7,0,0,1-2.047,5.3A10.578,10.578,0,0,1,16.929,16c-.237.286,0,.76.232,1.141,3.554,5.817,6.128,9.838,9.407,12.629A5.522,5.522,0,0,0,29.8,31.1a.343.343,0,0,1,.2.277.419.419,0,0,1-.148.388A7.206,7.206,0,0,1,27.787,32ZM11.031,1.472c-2.875,0-3.045.172-3.045,1.521V14.1a3.738,3.738,0,0,0,.142,1.567c.165.167,1.13.238,3.228.238a7.851,7.851,0,0,0,4.821-1.236c1.575-1.241,2.34-3.167,2.34-5.887C18.518,5.411,16.558,1.472,11.031,1.472Z" transform="translate(131 13)" fill="#fff"/>
    <path id="Fill_13" data-name="Fill 13" d="M16.712,33a18.333,18.333,0,0,1-7.007-1.319,15.438,15.438,0,0,1-5.256-3.545A16.108,16.108,0,0,1,0,16.834,16.921,16.921,0,0,1,4.73,4.84,16.617,16.617,0,0,1,16.712,0c5.047,0,9.269,1.74,12.21,5.031A16.89,16.89,0,0,1,33,16.357a16.748,16.748,0,0,1-4.746,11.934A16.122,16.122,0,0,1,16.712,33Zm-.8-31.522C10.738,1.479,4.7,5.1,4.7,15.306c0,7.81,3.952,16.215,12.629,16.215,5.066,0,10.983-3.584,10.983-13.686C28.307,10.29,25.061,1.479,15.912,1.479Z" transform="translate(156 13)" fill="#fff"/>
    <path id="Fill_14" data-name="Fill 14" d="M4.332,7.121c0-4.888-.092-5.633-3.006-5.865L.17,1.164C-.11.977-.018.138.26,0,2.853.093,4.426.138,6.278.138c1.8,0,3.377-.045,5.69-.138.275.138.371.977.093,1.164l-1.112.093c-2.729.231-2.821.977-2.821,5.865v16.2c0,2.934.138,4.145.972,5.029.508.511,1.389,1.07,5.044,1.07,3.933,0,4.9-.187,5.646-.6.923-.56,2.128-2.234,3.054-4.609.278-.232,1.157-.048,1.157.277A37.587,37.587,0,0,1,22.057,31c-2.361-.09-6.756-.138-11.524-.138H6.278c-1.946,0-3.425.048-6.019.138a.9.9,0,0,1-.09-1.164L1.556,29.7c2.684-.279,2.776-.932,2.776-5.819V7.121" transform="translate(187 13)" fill="#fff"/>
    <path id="Fill_15" data-name="Fill 15" d="M16.712,33a18.334,18.334,0,0,1-7.007-1.319,15.437,15.437,0,0,1-5.256-3.545A16.108,16.108,0,0,1,0,16.834,16.92,16.92,0,0,1,4.731,4.84,16.616,16.616,0,0,1,16.712,0c5.047,0,9.269,1.74,12.21,5.031A16.89,16.89,0,0,1,33,16.357a16.748,16.748,0,0,1-4.746,11.934A16.122,16.122,0,0,1,16.712,33Zm-.8-31.522C10.739,1.479,4.7,5.1,4.7,15.306c0,7.81,3.951,16.215,12.626,16.215,5.068,0,10.985-3.584,10.985-13.686C28.307,10.29,25.061,1.479,15.915,1.479Z" transform="translate(211 13)" fill="#fff"/>
    <path id="Fill_16" data-name="Fill 16" d="M28.031,27.373c0,1.91.279,3.052,1.115,3.385a.4.4,0,0,1-.044.573,10.18,10.18,0,0,0-2.282.431A35.709,35.709,0,0,1,18.487,33c-5.542,0-10.618-1.574-14.2-5.294A15.194,15.194,0,0,1,0,16.88a16.6,16.6,0,0,1,4.189-11.3C7.31,2.243,11.923,0,18.953,0a27.16,27.16,0,0,1,5.911.715,12.168,12.168,0,0,0,2.887.431,54.724,54.724,0,0,0,.7,6.914c-.142.382-.98.428-1.257.142-1.3-5.15-4.8-6.773-9.547-6.773-9.033,0-12.993,6.581-12.993,13.736,0,9.156,4.61,16.357,13.97,16.357,2.887,0,4.61-.619,5.124-1.432a5.422,5.422,0,0,0,.466-2.716V25.467c0-4.007-.14-4.293-3.028-4.625L19.139,20.6a.806.806,0,0,1,0-1.191c1.35.095,3.909.144,6.658.144,1.816,0,3.4-.049,4.935-.144a.848.848,0,0,1,.048,1.191l-.746.1c-1.955.24-2,1.574-2,4.007v2.67" transform="translate(245 13)" fill="#fff"/>
    <path id="Fill_17" data-name="Fill 17" d="M16.1,23.786c0,4.981.279,5.726,2.817,5.91l1.783.141A.9.9,0,0,1,20.609,31c-2.91-.093-4.506-.138-6.386-.138-1.971,0-3.66.045-6.149.138a.9.9,0,0,1-.094-1.163L9.436,29.7c2.723-.277,2.817-.929,2.817-5.91V21.411c0-2.558-.143-3.166-1.5-5.771L5.211,4.936C3.613,1.863,2.907,1.629,1.5,1.4L.184,1.163A.85.85,0,0,1,.278,0c1.5.093,3.2.141,5.446.141C7.886.141,9.577.093,10.748,0c.425.141.425.887.142,1.163l-.609.093c-1.644.234-1.974.466-1.974.839A22.7,22.7,0,0,0,9.762,5.678C11.5,9.123,13.238,12.8,15.069,16.012c1.456-2.468,3.005-5.167,4.415-7.866C20.8,5.726,22.535,2.561,22.535,2c0-.279-.843-.6-1.971-.746l-.846-.093A.77.77,0,0,1,19.812,0c1.692.093,3.051.141,4.506.141S27.089.093,28.688,0a.778.778,0,0,1,.094,1.163L27.465,1.4c-2.441.418-3.848,3.351-6.2,7.353l-2.96,5.074c-2.062,3.538-2.2,3.956-2.2,7.541v2.42" transform="translate(273 13)" fill="#fff"/>
    <path id="Fill_18" data-name="Fill 18" d="M1.207,0A24.708,24.708,0,0,1,6.682.68a10.627,10.627,0,0,0,2.672.411A54.134,54.134,0,0,0,10,7.688c-.127.364-.9.409-1.164.138C7.629,2.912,4.4,1.366,0,1.366" transform="translate(228 40)" fill="#fff"/>
  </g>
</svg>
