<svg xmlns="http://www.w3.org/2000/svg" width="36" height="52" viewBox="0 0 36 52"><g><g clip-path="url(#clip-7BDBE927-D748-4898-A3BD-4ACA02B9C0FA)"><path fill="#5B5600" d="M35.999 17.555a17.508 17.508 0 0 1-2.86 9.824c-1.494 2.287-4.114 5.726-7.571 10.659-5.052 7.208-7.217 12.923-7.545 13.834V52L18 51.935l-.023.065v-.128c-.328-.91-2.493-6.626-7.545-13.834-3.457-4.933-6.077-8.372-7.572-10.66a17.507 17.507 0 0 1-2.859-9.823C.118 7.803 8.095.018 17.988 0h.024C27.905.018 35.882 7.803 36 17.555m-17.994 6.643c3.758-.012 6.801-3.017 6.801-6.723 0-3.705-3.043-6.71-6.801-6.722-3.758.012-6.801 3.017-6.801 6.722 0 3.706 3.043 6.71 6.801 6.723"/></g></g></svg>