<svg xmlns="http://www.w3.org/2000/svg" width="37" height="65" viewBox="0 0 37 65"><defs><clipPath id="bi11a"><path fill="#fff" d="M0 5a5 5 0 0 1 5-5h27a5 5 0 0 1 5 5v55a5 5 0 0 1-5 5H5a5 5 0 0 1-5-5z"/></clipPath></defs><g><g transform="rotate(-180 -1695.5 -373.5)"><g><path fill="#0a4e68" fill-opacity=".8" d="M0 5a5 5 0 0 1 5-5h27a5 5 0 0 1 5 5v55a5 5 0 0 1-5 5H5a5 5 0 0 1-5-5z"/><path fill="none" stroke="#fff" stroke-miterlimit="50" stroke-width="2" d="M0 5a5 5 0 0 1 5-5h27a5 5 0 0 1 5 5v55a5 5 0 0 1-5 5H5a5 5 0 0 1-5-5z" clip-path="url(&quot;#bi11a&quot;)"/></g><g transform="rotate(-180 -1694 -374)"><path fill="#fff" d="M20.02 33l-9.535-8.489c-.647-.576-.647-1.508 0-2.081.644-.573 1.692-.573 2.335 0l10.697 9.524c.322.286.483.672.483 1.046 0 .375-.16.76-.483 1.047L12.82 43.57c-.643.572-1.691.572-2.335 0-.647-.573-.647-1.506 0-2.082l9.536-8.49"/></g></g></g></svg>