<svg xmlns="http://www.w3.org/2000/svg" width="82.369" height="220" viewBox="0 0 82.369 220">
  <g id="Group_1" data-name="Group 1" transform="translate(0)">
    <path id="Path_1" data-name="Path 1" d="M80.047,114.125c-1.322-1.995-.768-2.263-1.719-3.618s-2.41-2.148-2.964-3.453-2.417-9.49-3.253-17.373a55.169,55.169,0,0,0-1.937-11.219c-1.062-3.61-1.879-4.864-3.211-15.139-.783-6.075-.292-10.96-1.353-16.13s-4.729-6.146-6.854-6.923-3.09-1.561-4.826-2.342-4.631-2.147-5.212-3.122a12.893,12.893,0,0,1-1.449-6.36A4.327,4.327,0,0,0,50.419,29.6a3.642,3.642,0,0,1-.878-3.6,2.774,2.774,0,0,0,3.153,1.575,1.6,1.6,0,0,1-.667-2.2,2.4,2.4,0,0,0,1.295.775,2.005,2.005,0,0,0,1.558-.439c-4.347-.866.6-2.207,1.04-2.659-1.817-.4-2.038-3.9-.181-1.134a3.155,3.155,0,0,0-.591-3.176c.939-.165,1.383.177,1.962-1.029a3.8,3.8,0,0,1-3.134-1.272,2.279,2.279,0,0,0,1.82-1.573c-3.111.723-3.855-5.23-4.287-7.116C50.333,2.635,46.275,0,41.185,0c-5.5,0-9.4,3.033-10.475,8.487-.348,1.771-1.286,7.042-4.133,6.381A2.3,2.3,0,0,0,28.4,16.441a4.106,4.106,0,0,1-3.133,1.272,1.643,1.643,0,0,0,1.96,1.029,5.728,5.728,0,0,0-.59,3.176,1.9,1.9,0,0,1,.942-1.326c1.932-.076-1.192,2.533-1.125,2.461-.036-.007,2.575.284,2.714.8.328,1.24-1.058,1.49-1.673,1.857a2.021,2.021,0,0,0,1.561.44,2.378,2.378,0,0,0,1.293-.776,1.6,1.6,0,0,1-.667,2.2c1.736.563,2.272-.674,3.153-1.576-.45,1.2-.139,2.141-.878,3.6A4.526,4.526,0,0,0,35.1,28.517a12.782,12.782,0,0,1-1.446,6.291c-.58.977-3.475,2.341-5.213,3.122s-2.7,1.561-4.826,2.341-5.8,1.755-6.854,6.924-.568,10.057-1.355,16.13C14.073,73.6,13.26,74.854,12.2,78.464A55.151,55.151,0,0,0,10.26,89.683c-.837,7.88-2.7,16.066-3.255,17.372s-2.016,2.1-2.965,3.454-.4,1.621-1.719,3.616-2.73,2.6-2.208,2.863a3.38,3.38,0,0,0,3.1-.683c.874-.911,1.4-2.177,1.417-1.582s-.615,2.3-.9,4.822c-.141,1.254-.2,2.7-.3,3.708a12.165,12.165,0,0,0,.076,3.277c.176.263.355.4.665.3a.669.669,0,0,0,.4-.323s-.272.759.289.989a.786.786,0,0,0,.624.052.657.657,0,0,0,.764.25,1.174,1.174,0,0,0,.759-.386,5.445,5.445,0,0,0,.669-1.282c-.272,1.074.333,1.1.711.929a3.1,3.1,0,0,0,.915-.991,17.672,17.672,0,0,0,1.361-2.475c.146-.339.573-1.451.744-1.9.282-.744.626-1.747.916-2.648a28.892,28.892,0,0,0,1.435-6.109c.078-1.672-.109-3.39-.052-4.689a18.776,18.776,0,0,1,.67-3.342c.963-3.53,3.806-9.054,5.147-14.517s.774-7.555,1.806-12.043c1.126-4.909,1.871-10.145,2.449-12.4a64.229,64.229,0,0,0,1.107,7.809c.584,2.555,1.6,6.418,1.6,8.688,0,3.984-2.222,8.3-4.221,13.072a43.939,43.939,0,0,0-3.412,17.037,118.687,118.687,0,0,0,2.766,23.97c1.823,8.664,2.747,13.249,2.843,15.789a48.454,48.454,0,0,1-.192,8.194c-.386,3.61-1.136,9.291-.363,14.268s3.668,17.557,4.054,21.364-.529,5.321-.334,6.882.913,2.874.525,4.431a15.6,15.6,0,0,1-1.447,3.806c-1.439,2.488-3.388,3.831-3.058,5.171.2.809.709,2.235,3.21,2.951,2.064.59,5.13,1.08,6.193-.091s1.514-3.27,2.054-6.96c.227-1.554,1.262-3.225.988-4.662-.634-3.333-.031-4.186-.216-5.67-.217-1.729-.349-1.408-1.126-7.03-1.132-8.2,2.059-16.747,2.059-22.309,0-2.307-.54-8.16-.427-12.982.836-6.761,1.256-15.515,1.562-18.557.357-3.556,1.632-11.72,1.827-17.183s.256-9.236.256-9.236a3.565,3.565,0,0,0,2.307,0s.066,3.773.256,9.235,1.468,13.627,1.827,17.184c.305,3.042.724,11.8,1.56,18.557.113,4.822-.427,10.675-.427,12.982,0,5.557,3.191,14.112,2.06,22.309-.777,5.621-.908,5.3-1.126,7.03-.182,1.484.418,2.336-.217,5.67-.271,1.437.759,3.108.987,4.662.542,3.69,1,5.791,2.056,6.96s4.126.681,6.19.091c2.5-.715,3.013-2.142,3.209-2.951.329-1.34-1.616-2.683-3.058-5.169a15.835,15.835,0,0,1-1.448-3.808c-.386-1.557.336-2.869.53-4.431s-.72-3.078-.335-6.882,3.282-16.387,4.052-21.363.024-10.658-.362-14.268a48.824,48.824,0,0,1-.194-8.2c.1-2.539,1.022-7.124,2.841-15.788a118.6,118.6,0,0,0,2.769-23.969A43.9,43.9,0,0,0,60.1,95.515c-2-4.775-4.22-9.089-4.22-13.072,0-2.271,1.02-6.131,1.6-8.687a65.484,65.484,0,0,0,1.107-7.809c.58,2.255,1.322,7.49,2.45,12.4,1.03,4.489.462,6.581,1.8,12.043s4.185,10.987,5.148,14.518a19,19,0,0,1,.67,3.342c.058,1.3-.128,3.016-.05,4.689a28.849,28.849,0,0,0,1.434,6.108c.292.9.636,1.9.915,2.648.171.45.6,1.56.743,1.9a17.9,17.9,0,0,0,1.363,2.476,3.146,3.146,0,0,0,.913.991c.381.171.985.144.714-.93a5.409,5.409,0,0,0,.668,1.282,1.184,1.184,0,0,0,.759.386.662.662,0,0,0,.764-.25.786.786,0,0,0,.624-.052c.563-.229.29-.991.29-.991a.657.657,0,0,0,.4.324c.31.1.49-.035.664-.3a12.08,12.08,0,0,0,.077-3.277c-.094-1.007-.156-2.453-.3-3.708-.285-2.526-.924-4.226-.9-4.822s.543.67,1.418,1.582a3.375,3.375,0,0,0,3.1.683c.519-.265-.888-.873-2.213-2.864" transform="translate(0)" fill="rgba(255,51,154,0.5)"/>
  </g>
</svg>
