<svg xmlns="http://www.w3.org/2000/svg" width="97" height="220" viewBox="0 0 97 220"><g><g><path fill="#32ccfe" d="M93.529 107.8c-1.866-1.349-2.306-3.208-3.658-3.714-1.359-.505-4.409-.926-5.257-1.603-.845-.674-3.046-8.263-3.726-11.298-.68-3.036-.596-7.926-1.357-10.876-.762-2.952-2.712-6.326-3.64-9.698-.934-3.37-1.272-8.01-1.272-8.01-.507-2.697-.086-6.996.17-8.767.258-1.772.596-6.746-.846-9.53-1.441-2.785-4.322-4.132-7.034-4.977-2.71-.843-5.67-2.194-7.876-3.372-2.203-1.179-3.724-3.283-3.724-6.153 0-4.604.843-7.347.843-7.347s.509-.025 1.27-.76c.713-.684 1.61-2.277 1.78-3.879.174-1.601.68-3.29 0-3.458-.674-.166-1.44.423-1.44.423s.784-5.39.25-7.458c-.84-3.312-2.471-4.594-5.082-5.642-1-.4-3.605-.675-3.605-.675s-.404-.013-.996 0a7.472 7.472 0 0 0-1.063.047c-1.085.073-2.383.24-3.347.626-2.613 1.048-4.241 2.33-5.083 5.642-.528 2.068.252 7.458.252 7.458s-.764-.589-1.441-.422c-.674.171-.17 1.854 0 3.457.172 1.602 1.07 3.196 1.78 3.88.765.734 1.271.76 1.271.76s.847 2.744.847 7.346c0 2.87-1.522 4.973-3.724 6.154-2.207 1.177-5.018 2.528-7.729 3.371-2.712.845-5.593 2.192-7.032 4.976-1.442 2.785-1.104 7.758-.848 9.53.255 1.774.675 6.072.17 8.768 0 0-.34 4.64-1.272 8.01-.93 3.373-2.878 6.746-3.642 9.698-.762 2.95-.677 7.84-1.357 10.876-.677 3.035-2.877 10.626-3.725 11.298-.849.677-3.895 1.1-5.254 1.604-1.357.504-1.796 2.365-3.66 3.714-1.867 1.348-2.74 1.78-2.4 2.287.336.509 1.609.593 3.133 0 1.526-.59 2.59-2.038 3.01-1.953.426.083-.043 2.204-.464 3.638-.426 1.433-2.162 3.948-2.924 5.551-.762 1.604-1.608 3.962-1.019 4.303.596.335 1.36 0 1.36 0s-.51 1.263.252 1.519c.766.25 1.781-.958 1.781-.958l1.273-1.32s-1.22 2.046-.932 2.87c.196.562.847.59.847.59s.807.027 1.865-1.688c.658-1.066 3.007-5.623 3.007-5.623s-.873 4.143-.873 5.182c0 1.036.338 1.278.762 1.362.421.087 1.087-1.34 1.763-3.617.678-2.279 1.866-4.552 2.543-6.239.68-1.686 1.695-3.034 1.95-4.891.252-1.853 2.033-5.566 2.033-5.566s2.457-4.05 4.576-9.36c2.115-5.313 4.15-11.889 4.15-11.889s.77-3.777.853-5.462c.088-1.687.82-3.99.82-3.99s.697 4.31.613 6.84c-.086 2.527-.68 7.924-.935 10.793-.253 2.868-1.522 7.167-2.543 12.563-1.063 5.656-2.924 11.385-2.592 20.735.338 9.617.649 8.606 1.073 15.605.424 6.999.97 7.99 1.183 12.649.187 4.143-1.527 8.347-1.78 15.01-.254 6.66 2.456 22.454 2.963 26.42.51 3.957.509 5.734.172 8.767-.34 3.033-.762 4.977-.762 6.153 0 1.18-.763 2.614-1.61 3.714-.847 1.096-2.457 3.226-2.457 3.962 0 1.179.42 3.083 3.304 3.083 3.144 0 4.15.31 5.506.07 1.158-.201 2.286-.035 2.885-1.467.59-1.434.676-3.035.505-5.142-.17-2.11-.17-5.902.169-7.505.338-1.6.934-2.023.593-3.375-.336-1.349-1.099-6.152-1.017-8.853.084-2.698 3.78-16.553 3.948-19.924.169-3.375-.18-7.2-.18-9.528 0-3.11.977-5.147 1.656-7.254.677-2.107 1.53-6.535 1.955-12.606.424-6.072 1.628-6.592 2.31-13.51.677-6.914 1.144-12.002 1.144-12.002s1.047.178 1.557.168c.512.01 1.56-.168 1.56-.168s.463 5.088 1.144 12.002c.68 6.918 1.885 7.436 2.311 13.51.422 6.071 1.277 10.499 1.952 12.606.679 2.107 1.656 4.143 1.656 7.254 0 2.328-.346 6.152-.175 9.528.169 3.371 3.861 17.226 3.95 19.924.082 2.701-.684 7.504-1.02 8.853-.34 1.352.254 1.775.592 3.375.343 1.603.343 5.395.174 7.505-.174 2.105-.088 3.708.508 5.142.593 1.432 1.723 1.266 2.88 1.467 1.355.24 2.362-.07 5.506-.07 2.883 0 3.304-1.902 3.304-3.083 0-.737-1.61-2.868-2.459-3.962-.845-1.1-1.605-2.532-1.605-3.714 0-1.176-.426-3.12-.76-6.153-.338-3.033-.343-4.81.172-8.766.504-3.967 3.217-19.761 2.962-26.42-.252-6.664-1.968-10.872-1.78-15.011.216-4.659.76-5.65 1.184-12.65.424-7 .735-5.99 1.073-15.604.33-9.35-1.53-15.079-2.594-20.735-1.017-5.396-2.291-9.697-2.542-12.563-.255-2.869-.848-8.266-.934-10.794-.084-2.53.615-6.837.615-6.837s.733 2.305.816 3.99c.085 1.683.855 5.462.855 5.462s2.038 6.576 4.152 11.888c2.12 5.311 4.576 9.361 4.576 9.361s1.782 3.71 2.03 5.567c.26 1.854 1.275 3.202 1.952 4.89.678 1.686 1.863 3.96 2.542 6.238.676 2.277 1.342 3.706 1.763 3.618.424-.085.762-.324.762-1.362 0-1.04-.875-5.183-.875-5.183s2.35 4.558 3.005 5.624c1.06 1.715 1.865 1.688 1.865 1.688s.653-.027.849-.592c.288-.82-.934-2.868-.934-2.868l1.272 1.32s1.015 1.207 1.779.957c.762-.254.249-1.518.249-1.518s.763.336 1.361 0c.592-.341-.257-2.7-1.018-4.303-.763-1.602-2.5-4.118-2.925-5.552-.427-1.433-.89-3.554-.467-3.637.423-.084 1.485 1.363 3.009 1.952 1.526.594 2.796.51 3.138 0 .34-.507-.534-.938-2.4-2.287"/><path fill="none" stroke="#0a4e68" stroke-miterlimit="50" stroke-width="2" d="M93.529 107.8c-1.866-1.349-2.306-3.208-3.658-3.714-1.359-.505-4.409-.926-5.257-1.603-.845-.674-3.046-8.263-3.726-11.298-.68-3.036-.596-7.926-1.357-10.876-.762-2.952-2.712-6.326-3.64-9.698-.934-3.37-1.272-8.01-1.272-8.01-.507-2.697-.086-6.996.17-8.767.258-1.772.596-6.746-.846-9.53-1.441-2.785-4.322-4.132-7.034-4.977-2.71-.843-5.67-2.194-7.876-3.372-2.203-1.179-3.724-3.283-3.724-6.153 0-4.604.843-7.347.843-7.347v0s.509-.025 1.27-.76c.713-.684 1.61-2.277 1.78-3.879.174-1.601.68-3.29 0-3.458-.674-.166-1.44.423-1.44.423v0s.784-5.39.25-7.458c-.84-3.312-2.471-4.594-5.082-5.642-1-.4-3.605-.675-3.605-.675v0s-.404-.013-.996 0a7.472 7.472 0 0 0-1.063.047c-1.085.073-2.383.24-3.347.626-2.613 1.048-4.241 2.33-5.083 5.642-.528 2.068.252 7.458.252 7.458v0s-.764-.589-1.441-.422c-.674.171-.17 1.854 0 3.457.172 1.602 1.07 3.196 1.78 3.88.765.734 1.271.76 1.271.76v0s.847 2.744.847 7.346c0 2.87-1.522 4.973-3.724 6.154-2.207 1.177-5.018 2.528-7.729 3.371-2.712.845-5.593 2.192-7.032 4.976-1.442 2.785-1.104 7.758-.848 9.53.255 1.774.675 6.072.17 8.768 0 0-.34 4.64-1.272 8.01-.93 3.373-2.878 6.746-3.642 9.698-.762 2.95-.677 7.84-1.357 10.876-.677 3.035-2.877 10.626-3.725 11.298-.849.677-3.895 1.1-5.254 1.604-1.357.504-1.796 2.365-3.66 3.714-1.867 1.348-2.74 1.78-2.4 2.287.336.509 1.609.593 3.133 0 1.526-.59 2.59-2.038 3.01-1.953.426.083-.043 2.204-.464 3.638-.426 1.433-2.162 3.948-2.924 5.551-.762 1.604-1.608 3.962-1.019 4.303.596.335 1.36 0 1.36 0v0s-.51 1.263.252 1.519c.766.25 1.781-.958 1.781-.958v0l1.273-1.32v0s-1.22 2.046-.932 2.87c.196.562.847.59.847.59v0s.807.027 1.865-1.688c.658-1.066 3.007-5.623 3.007-5.623v0s-.873 4.143-.873 5.182c0 1.036.338 1.278.762 1.362.421.087 1.087-1.34 1.763-3.617.678-2.279 1.866-4.552 2.543-6.239.68-1.686 1.695-3.034 1.95-4.891.252-1.853 2.033-5.566 2.033-5.566v0s2.457-4.05 4.576-9.36c2.115-5.313 4.15-11.889 4.15-11.889v0s.77-3.777.853-5.462c.088-1.687.82-3.99.82-3.99v0s.697 4.31.613 6.84c-.086 2.527-.68 7.924-.935 10.793-.253 2.868-1.522 7.167-2.543 12.563-1.063 5.656-2.924 11.385-2.592 20.735.338 9.617.649 8.606 1.073 15.605.424 6.999.97 7.99 1.183 12.649.187 4.143-1.527 8.347-1.78 15.01-.254 6.66 2.456 22.454 2.963 26.42.51 3.957.509 5.734.172 8.767-.34 3.033-.762 4.977-.762 6.153 0 1.18-.763 2.614-1.61 3.714-.847 1.096-2.457 3.226-2.457 3.962 0 1.179.42 3.083 3.304 3.083 3.144 0 4.15.31 5.506.07 1.158-.201 2.286-.035 2.885-1.467.59-1.434.676-3.035.505-5.142-.17-2.11-.17-5.902.169-7.505.338-1.6.934-2.023.593-3.375-.336-1.349-1.099-6.152-1.017-8.853.084-2.698 3.78-16.553 3.948-19.924.169-3.375-.18-7.2-.18-9.528 0-3.11.977-5.147 1.656-7.254.677-2.107 1.53-6.535 1.955-12.606.424-6.072 1.628-6.592 2.31-13.51.677-6.914 1.144-12.002 1.144-12.002v0s1.047.178 1.557.168c.512.01 1.56-.168 1.56-.168v0s.463 5.088 1.144 12.002c.68 6.918 1.885 7.436 2.311 13.51.422 6.071 1.277 10.499 1.952 12.606.679 2.107 1.656 4.143 1.656 7.254 0 2.328-.346 6.152-.175 9.528.169 3.371 3.861 17.226 3.95 19.924.082 2.701-.684 7.504-1.02 8.853-.34 1.352.254 1.775.592 3.375.343 1.603.343 5.395.174 7.505-.174 2.105-.088 3.708.508 5.142.593 1.432 1.723 1.266 2.88 1.467 1.355.24 2.362-.07 5.506-.07 2.883 0 3.304-1.902 3.304-3.083 0-.737-1.61-2.868-2.459-3.962-.845-1.1-1.605-2.532-1.605-3.714 0-1.176-.426-3.12-.76-6.153-.338-3.033-.343-4.81.172-8.766.504-3.967 3.217-19.761 2.962-26.42-.252-6.664-1.968-10.872-1.78-15.011.216-4.659.76-5.65 1.184-12.65.424-7 .735-5.99 1.073-15.604.33-9.35-1.53-15.079-2.594-20.735-1.017-5.396-2.291-9.697-2.542-12.563-.255-2.869-.848-8.266-.934-10.794-.084-2.53.615-6.837.615-6.837v0s.733 2.305.816 3.99c.085 1.683.855 5.462.855 5.462v0s2.038 6.576 4.152 11.888c2.12 5.311 4.576 9.361 4.576 9.361v0s1.782 3.71 2.03 5.567c.26 1.854 1.275 3.202 1.952 4.89.678 1.686 1.863 3.96 2.542 6.238.676 2.277 1.342 3.706 1.763 3.618.424-.085.762-.324.762-1.362 0-1.04-.875-5.183-.875-5.183s2.35 4.558 3.005 5.624c1.06 1.715 1.865 1.688 1.865 1.688v0s.653-.027.849-.592c.288-.82-.934-2.868-.934-2.868v0l1.272 1.32v0s1.015 1.207 1.779.957c.762-.254.249-1.518.249-1.518v0s.763.336 1.361 0c.592-.341-.257-2.7-1.018-4.303-.763-1.602-2.5-4.118-2.925-5.552-.427-1.433-.89-3.554-.467-3.637.423-.084 1.485 1.363 3.009 1.952 1.526.594 2.796.51 3.138 0 .34-.507-.534-.938-2.4-2.287"/></g></g></svg>