<svg xmlns="http://www.w3.org/2000/svg" width="84.569" height="222.033" viewBox="0 0 84.569 222.033">
  <g id="Group_2" data-name="Group 2" transform="translate(1.001 1)">
    <path id="Path_2" data-name="Path 2" d="M80.239,114.125c-1.325-1.995-.77-2.263-1.723-3.618s-2.415-2.148-2.971-3.453-2.423-9.49-3.261-17.373a55.05,55.05,0,0,0-1.942-11.219c-1.065-3.61-1.883-4.864-3.219-15.139-.785-6.075-.293-10.96-1.357-16.13s-4.741-6.146-6.871-6.923-3.1-1.561-4.838-2.342-4.643-2.147-5.225-3.122a12.867,12.867,0,0,1-1.453-6.36A4.344,4.344,0,0,0,50.54,29.6a3.636,3.636,0,0,1-.88-3.6,2.782,2.782,0,0,0,3.161,1.575,1.6,1.6,0,0,1-.669-2.2,2.408,2.408,0,0,0,1.3.775,2.014,2.014,0,0,0,1.561-.439c-4.357-.866.6-2.207,1.042-2.659-1.822-.4-2.043-3.9-.182-1.134a3.15,3.15,0,0,0-.593-3.176c.942-.165,1.386.177,1.967-1.029A3.809,3.809,0,0,1,54.1,16.441a2.283,2.283,0,0,0,1.825-1.573c-3.119.723-3.864-5.23-4.3-7.116C50.454,2.635,46.386,0,41.284,0c-5.512,0-9.426,3.033-10.5,8.487-.349,1.771-1.289,7.042-4.143,6.381a2.3,2.3,0,0,0,1.824,1.572,4.121,4.121,0,0,1-3.141,1.272,1.648,1.648,0,0,0,1.965,1.029,5.716,5.716,0,0,0-.592,3.176,1.9,1.9,0,0,1,.944-1.326c1.937-.076-1.195,2.533-1.128,2.461-.037-.007,2.582.284,2.721.8.329,1.24-1.061,1.49-1.677,1.857a2.03,2.03,0,0,0,1.565.44,2.385,2.385,0,0,0,1.3-.776,1.6,1.6,0,0,1-.669,2.2c1.74.563,2.277-.674,3.161-1.576-.452,1.2-.139,2.141-.88,3.6a4.544,4.544,0,0,0,3.156-1.084,12.756,12.756,0,0,1-1.45,6.291c-.581.977-3.484,2.341-5.226,3.122s-2.71,1.561-4.838,2.341-5.809,1.755-6.871,6.924-.57,10.057-1.359,16.13c-1.336,10.275-2.15,11.53-3.217,15.139a55.032,55.032,0,0,0-1.941,11.219c-.839,7.88-2.709,16.066-3.263,17.372s-2.021,2.1-2.972,3.454-.4,1.621-1.723,3.616-2.736,2.6-2.214,2.863a3.4,3.4,0,0,0,3.11-.683c.876-.911,1.4-2.177,1.42-1.582s-.617,2.3-.9,4.822c-.141,1.254-.2,2.7-.3,3.708a12.136,12.136,0,0,0,.076,3.277c.177.263.355.4.667.3a.67.67,0,0,0,.4-.323s-.273.759.29.989a.789.789,0,0,0,.625.052.659.659,0,0,0,.766.25,1.178,1.178,0,0,0,.761-.386,5.441,5.441,0,0,0,.671-1.282c-.273,1.074.333,1.1.713.929a3.1,3.1,0,0,0,.918-.991,17.66,17.66,0,0,0,1.364-2.475c.146-.339.575-1.451.746-1.9.282-.744.627-1.747.919-2.648a28.834,28.834,0,0,0,1.438-6.109c.078-1.672-.11-3.39-.052-4.689a18.736,18.736,0,0,1,.672-3.342c.966-3.53,3.815-9.054,5.159-14.517s.776-7.555,1.81-12.043c1.129-4.909,1.875-10.145,2.455-12.4a64.085,64.085,0,0,0,1.11,7.809c.585,2.554,1.606,6.418,1.606,8.688,0,3.984-2.227,8.3-4.231,13.072a43.848,43.848,0,0,0-3.42,17.037,118.414,118.414,0,0,0,2.773,23.97c1.827,8.664,2.754,13.249,2.85,15.789a48.338,48.338,0,0,1-.192,8.194c-.387,3.61-1.139,9.291-.364,14.268s3.677,17.557,4.064,21.364-.53,5.321-.334,6.882.916,2.874.527,4.431a15.579,15.579,0,0,1-1.451,3.806c-1.442,2.488-3.4,3.831-3.065,5.171.2.809.711,2.235,3.218,2.951,2.069.59,5.142,1.08,6.208-.091s1.518-3.27,2.059-6.96c.228-1.554,1.265-3.225.991-4.662-.635-3.333-.031-4.186-.216-5.67-.217-1.729-.35-1.408-1.129-7.03-1.135-8.2,2.064-16.747,2.064-22.309,0-2.307-.541-8.16-.429-12.982.838-6.761,1.259-15.515,1.566-18.557.357-3.557,1.636-11.72,1.831-17.183s.257-9.236.257-9.236a3.582,3.582,0,0,0,2.313,0s.066,3.773.257,9.235,1.472,13.628,1.831,17.184c.306,3.042.725,11.8,1.564,18.557.113,4.822-.429,10.675-.429,12.982,0,5.557,3.2,14.112,2.065,22.309-.779,5.621-.91,5.3-1.129,7.03-.183,1.484.419,2.336-.217,5.67-.272,1.437.761,3.108.99,4.662.543,3.69,1,5.791,2.061,6.96s4.136.681,6.205.091c2.506-.715,3.021-2.142,3.217-2.951.33-1.34-1.62-2.683-3.065-5.169a15.812,15.812,0,0,1-1.452-3.808c-.387-1.557.337-2.869.531-4.431s-.722-3.078-.335-6.882,3.29-16.387,4.062-21.363.024-10.658-.363-14.268a48.708,48.708,0,0,1-.194-8.2c.1-2.539,1.024-7.124,2.848-15.788a118.329,118.329,0,0,0,2.776-23.969,43.813,43.813,0,0,0-3.421-17.038c-2-4.775-4.23-9.089-4.23-13.072,0-2.271,1.022-6.131,1.609-8.687a65.338,65.338,0,0,0,1.11-7.809c.581,2.255,1.325,7.49,2.456,12.4,1.033,4.489.463,6.581,1.808,12.043s4.2,10.988,5.16,14.518a18.954,18.954,0,0,1,.672,3.342c.059,1.3-.129,3.016-.05,4.689a28.79,28.79,0,0,0,1.437,6.108c.293.9.638,1.9.918,2.648.171.45.6,1.56.745,1.9a17.89,17.89,0,0,0,1.366,2.476,3.148,3.148,0,0,0,.916.991c.381.171.988.144.716-.93a5.405,5.405,0,0,0,.67,1.282,1.188,1.188,0,0,0,.761.386.664.664,0,0,0,.766-.25.79.79,0,0,0,.625-.052c.564-.229.291-.991.291-.991a.658.658,0,0,0,.4.324c.31.1.491-.035.666-.3a12.051,12.051,0,0,0,.077-3.277c-.094-1.007-.157-2.453-.3-3.708-.285-2.526-.926-4.226-.9-4.822s.545.67,1.421,1.582a3.389,3.389,0,0,0,3.111.683c.52-.265-.89-.873-2.218-2.864" transform="translate(0)" fill="rgba(255,51,154,0.5)" stroke="#0a4e68" stroke-miterlimit="50" stroke-width="2"/>
  </g>
</svg>
