<svg xmlns="http://www.w3.org/2000/svg" width="1934.002" height="122.754" viewBox="0 0 1934.002 122.754">
  <path id="Subtraction_3" data-name="Subtraction 3" d="M7062-502.838H5128V-520c.278.038,30.106,4.06,84.278,8.046,31.747,2.336,65.479,4.2,100.259,5.531,43.449,1.669,88.7,2.515,134.482,2.515,131.1,0,266.729-6.832,403.116-20.307,39.811-3.933,80.224-8.5,120.116-13.562,42.1-5.347,84.724-11.4,126.695-17.984,44.144-6.927,88.79-14.639,132.7-22.92,45.956-8.667,92.425-18.211,138.117-28.366,14.53-3.23,29.576-6.074,44.718-8.454,14.674-2.307,29.851-4.245,45.109-5.758,28.985-2.874,59.4-4.332,90.412-4.332,31.734,0,64.87,1.526,98.488,4.537,30.557,2.736,62.213,6.761,94.09,11.961a1556.3,1556.3,0,0,1,164.211,36.3c21.743,6.026,43.524,12.549,64.742,19.386,17.023,5.485,33.7,11.175,49.578,16.911,26.473,9.564,42.227,16.216,42.884,16.495H7062v17.164ZM5408.15-521.1l-.685-.042h.01l.549.032h.135Zm-1-.061c-1.786-.11-3.6-.225-5.4-.343,1.777.114,3.6.229,5.4.341Zm-5.609-.356-.251-.016-.455-.03.455.028h0l.251.014h0Zm-.711-.047-1.654-.11q.827.052,1.654.108ZM6956.19-568.3c-1.181-.464-2.374-.931-3.546-1.388-1.823-.711-3.664-1.425-5.472-2.121,1.8.691,3.641,1.405,5.473,2.12h0c1.177.457,2.37.924,3.547,1.386Z" transform="translate(-5128 625.591)"/>
</svg>
